<?xml version="1.0" encoding="UTF-8" standalone="no"?>
<!-- Created with Inkscape (http://www.inkscape.org/) -->

<svg
   width="100"
   height="100"
   viewBox="0 0 26.458333 26.458333"
   version="1.1"
   id="svg1"
   xmlns="http://www.w3.org/2000/svg"
   xmlns:svg="http://www.w3.org/2000/svg">
  <defs
     id="defs1" />
  <rect
     style="display:none;fill:#dc0000;fill-opacity:0.0973452;stroke:none;stroke-width:1.5875;stroke-linecap:round;stroke-linejoin:round;stroke-miterlimit:6.6;stroke-dasharray:none;stroke-opacity:1"
     id="rect36"
     width="21.166668"
     height="21.166668"
     x="2.6458335"
     y="2.6458333" />
  <g
     id="layer1">
    <g
       id="g25"
       style="display:none;opacity:1"
       transform="matrix(0.11705928,0,0,0.11705928,0.93795309,1.2509941)">
      <path
         style="color:#000000;fill:#e6e6e6;fill-opacity:1;stroke-linecap:round;stroke-linejoin:round;stroke-miterlimit:6.6;-inkscape-stroke:none"
         d="m 93.338178,77.251692 c 0,0 -1.4741,23.856188 -18.69319,53.153368 -14.417833,24.53101 -16.050817,44.45732 -16.050817,44.45732 0,0 15.683631,6.8847 46.322209,7.68435 l -5.9e-4,0.006 c 0.0288,-7.4e-4 0.0551,-0.002 0.0839,-0.003 0.0288,7.4e-4 0.0551,0.002 0.0839,0.003 l -5.9e-4,-0.006 c 30.63898,-0.79958 46.3228,-7.68435 46.3228,-7.68435 0,0 -1.63299,-19.92631 -16.05081,-44.45732 -17.2191,-29.29718 -18.6932,-53.153368 -18.6932,-53.153368 l -11.45725,1.499439 z m 11.745442,105.301278 0.006,0.0521 0.009,-0.0516 c -0.006,-1.4e-4 -0.0103,-4.3e-4 -0.0152,-5.6e-4 z m -0.16783,0 c -0.004,1.2e-4 -0.009,4.4e-4 -0.0147,5.6e-4 l 0.009,0.0516 z"
         id="path29" />
      <path
         style="fill:#cbcbcb;fill-opacity:1;stroke:none;stroke-width:4.10343;stroke-linecap:round;stroke-linejoin:round;stroke-miterlimit:6.6;stroke-dasharray:none;stroke-opacity:1"
         d="m 99.08122,92.238505 c 17.04538,1.418734 28.56855,62.846875 20.35134,89.107215 l 33.12159,-6.25988 -6.70844,-25.91031 -12.72048,-20.46691 -12.32446,-42.085876"
         id="path19" />
      <path
         style="color:#000000;fill:#0d0d0d;stroke-linecap:round;stroke-linejoin:round;stroke-miterlimit:6.6;-inkscape-stroke:none"
         d="m 94.1875,70.525391 a 6.7814307,6.7814307 0 0 0 -7.617188,6.308593 c 0,0 -1.281522,22.07815 -17.771484,50.134766 -15.117267,25.72105 -16.96289,47.33984 -16.962891,47.33984 a 6.7814307,6.7814307 0 0 0 4.033204,6.76172 c 0,0 17.278129,7.42935 48.871089,8.25391 l -0.19531,-0.2207 a 6.7814307,6.7814307 0 0 0 0.31836,0.13281 l -0.48437,-0.58985 a 6.7814307,6.7814307 0 0 0 0.10547,-0.004 l -0.0273,-0.0293 a 6.7814307,6.7814307 0 0 0 0.49219,0.0156 6.7814307,6.7814307 0 0 0 0.0684,-0.004 v 0.006 a 6.7814307,6.7814307 0 0 0 0.58984,0.0156 l -0.52734,0.64063 -0.14453,-0.1543 -0.0195,0.12696 a 6.7814307,6.7814307 0 0 0 0.11132,0.0449 6.7814307,6.7814307 0 0 0 0.043,-0.006 l -0.0156,0.0176 a 6.7814307,6.7814307 0 0 0 0.0234,0.01 h -0.0312 l -0.004,0.006 c 0.10378,-0.002 0.0412,-0.002 0.0449,-0.002 a 6.7814307,6.7814307 0 0 0 0.002,0.002 c 0.0244,-6.3e-4 0.0107,-0.001 0.0293,-0.002 0.0731,-0.002 0.13559,-0.005 0.11524,-0.004 h -0.11915 l -0.0273,-0.0293 a 6.7814307,6.7814307 0 0 0 0.22266,-0.0312 l -0.0508,0.0586 c 31.59337,-0.82449 48.87109,-8.25391 48.87109,-8.25391 a 6.7814307,6.7814307 0 0 0 4.0332,-6.76172 c 0,0 -1.84564,-21.61879 -16.96289,-47.33984 C 124.7112,98.912135 123.42969,76.833984 123.42969,76.833984 a 6.7814307,6.7814307 0 0 0 -7.64844,-6.30664 l -10.5918,1.386718 z m 4.824219,14.277343 5.341801,0.675782 a 6.7814307,6.7814307 0 0 0 1.73046,-0.0039 l 4.91016,-0.642578 c 1.65234,9.528695 6.04388,27.789902 18.51563,49.009772 9.54233,16.23568 12.96498,29.56552 14.26757,36.4414 -6.2175,1.92651 -18.62465,4.94542 -38.77734,5.48047 -20.152423,-0.5351 -32.559916,-3.55397 -38.777344,-5.48047 1.302597,-6.87588 4.725231,-20.20572 14.267578,-36.4414 12.482539,-21.23824 16.872842,-39.518288 18.521485,-49.039069 z m 5.730471,90.970706 0.004,0.006 a 6.7814307,6.7814307 0 0 0 -0.002,0 6.7814307,6.7814307 0 0 0 -0.0312,-0.004 c -0.12786,0.004 -0.0239,-4.5e-4 0.0293,-0.002 z m -6.281253,5.66797 0.359375,0.01 a 6.7814307,6.7814307 0 0 0 -0.08594,0.32227 z m 0.251954,0.41015 a 6.7814307,6.7814307 0 0 0 -0.111329,0.42578 l -0.378906,-0.41015 z m 6.197269,7.44336 -0.004,0.0274 a 6.7814307,6.7814307 0 0 0 0.0234,-0.004 z m -0.084,0.0332 c -0.0628,-0.002 -0.0617,-9.3e-4 0.0215,0.002 a 6.7814307,6.7814307 0 0 0 0.0156,-0.002 z m 0.0781,0 v 0.004 c -0.15723,-0.004 -0.11168,-0.003 0.0371,0 l -0.004,-0.004 z"
         id="path30" />
      <path
         style="color:#000000;fill:#e5e5e5;fill-opacity:1;stroke-linecap:round;stroke-linejoin:round;stroke-miterlimit:6.6;-inkscape-stroke:none"
         d="M 102.86411,91.758025 A 34.911278,34.911278 0 0 1 70.143293,58.817538 34.911278,34.911278 0 0 1 99.079197,22.507196 34.911278,34.911278 0 0 1 138.49193,47.050315 34.911278,34.911278 0 0 1 118.67086,89.036659"
         id="path34" />
      <path
         style="fill:#cbcbcb;fill-opacity:1;stroke:none;stroke-width:3.92453;stroke-linecap:round;stroke-linejoin:round;stroke-miterlimit:6.6;stroke-dasharray:none;stroke-opacity:1"
         d="m 92.530812,88.681434 c 0,0 40.591418,-6.19247 36.019928,-50.504951 13.73137,9.735201 2.64588,33.926271 2.64588,33.926271 l -7.64681,11.13012 -9.40621,7.9293 c 0,0 -13.96371,6.75868 -21.612788,-2.48074 z"
         id="path16" />
      <path
         style="color:#000000;fill:#0d0d0d;stroke-linecap:round;stroke-linejoin:round;stroke-miterlimit:6.6;-inkscape-stroke:none"
         d="m 146.54418,60.349667 c 0.42242,-5.004211 -0.0571,-10.153264 -1.54763,-15.214773 -5.96208,-20.246038 -26.26884,-32.890628 -47.068486,-29.309663 -20.799641,3.580966 -35.70698,22.28846 -34.555167,43.362656 1.151812,21.074196 18.00991,38.045796 39.075923,39.338589 3.73755,0.228916 6.95313,-2.615129 7.18254,-6.352652 0.23004,-3.738244 -2.61424,-6.955029 -6.35252,-7.184488 C 88.972981,84.111402 77.69549,72.757919 76.913297,58.446508 76.131106,44.135096 86.103899,31.621841 100.22886,29.19002 c 14.12497,-2.43182 27.70969,6.02656 31.75851,19.775572 4.04882,13.749012 -2.78253,28.21981 -15.97114,33.831317 -3.44552,1.466305 -4.39365,5.31685 -3.63611,8.883302 0.77937,3.669218 5.49903,5.062201 8.94525,3.596676 14.56562,-6.197397 23.95156,-19.914589 25.21881,-34.92722 z"
         id="path35" />
    </g>
    <g
       id="g50"
       style="display:none;opacity:0.5">
      <path
         style="color:#000000;fill:#4d4d4d;fill-opacity:1;stroke-linecap:round;stroke-linejoin:round;stroke-miterlimit:6.6;-inkscape-stroke:none"
         d="M 9.9419395,19.913553 C 7.3649678,18.429599 6.1085869,14.66415 6.8787364,11.797372 7.6488857,8.9305932 11.382818,6.0612979 13.22916,3.7331562 c 1.88097,2.3002853 5.580274,5.197437 6.350423,8.0642158 0.770149,2.866778 -0.486231,6.668113 -3.063202,8.152068"
         id="path46" />
      <path
         style="fill:#343434;fill-opacity:1;stroke:none;stroke-width:1.5875;stroke-linecap:round;stroke-linejoin:round;stroke-miterlimit:6.6;stroke-dasharray:none;stroke-opacity:1"
         d="m 12.140243,19.870454 c 4.11009,-0.667919 7.246619,-6.231431 6.784052,-9.439709 l 0.72588,5.758832 -2.768478,3.641151 z"
         id="path45" />
      <path
         style="color:#000000;fill:#0d0d0d;stroke-linecap:round;stroke-linejoin:round;stroke-miterlimit:6.6;-inkscape-stroke:none"
         d="M 13.222656,2.9394531 A 0.79382936,0.79382936 0 0 0 12.607422,3.2402344 C 11.747476,4.3245814 10.354839,5.6284649 9.0664063,7.0253906 7.7779733,8.4223163 6.5625783,9.9120778 6.1113281,11.591797 5.2398775,14.835655 6.5614415,18.88352 9.5449219,20.601562 A 0.79374999,0.79374999 0 0 0 10.628906,20.310547 0.79374999,0.79374999 0 0 0 10.337891,19.226562 C 8.1674327,17.9767 6.9756844,14.493599 7.6445312,12.003906 7.9634296,10.816849 9.0017215,9.4380118 10.234375,8.1015625 c 1.02122,-1.1072121 2.07593,-2.1662178 2.996094,-3.2109375 0.927302,1.0335619 1.986993,2.0879279 3.005859,3.1992188 1.22732,1.3386531 2.256333,2.7235052 2.576172,3.9140622 0.668416,2.48809 -0.525744,6.010711 -2.691406,7.257813 a 0.79374999,0.79374999 0 0 0 -0.292969,1.083984 0.79374999,0.79374999 0 0 0 1.083984,0.291016 c 2.988275,-1.720806 4.305475,-5.799462 3.433594,-9.044922 C 19.895394,9.9155786 18.69136,8.4173109 17.40625,7.015625 16.12114,5.6139391 14.726188,4.3096245 13.84375,3.2304688 A 0.79382936,0.79382936 0 0 0 13.222656,2.9394531 Z"
         id="path47" />
      <path
         style="color:#000000;fill:#4d4d4d;fill-opacity:1;stroke-linecap:round;stroke-linejoin:round;stroke-miterlimit:6.6;-inkscape-stroke:none"
         d="m 16.025769,19.842424 h 0.845932 c 0.637421,0 1.150578,0.498954 1.150578,1.118734 v 0.645824 c 0,0.61978 -0.513157,1.118736 -1.150578,1.118736 H 9.5866187 c -0.6374209,0 -1.1505791,-0.498956 -1.1505791,-1.118736 v -0.645824 c 0,-0.61978 0.5131582,-1.118734 1.1505791,-1.118734 h 3.8311023"
         id="path51" />
      <path
         style="fill:#323232;fill-opacity:1;stroke:none;stroke-width:1.5875;stroke-linecap:round;stroke-linejoin:round;stroke-miterlimit:6.6;stroke-dasharray:none;stroke-opacity:1"
         d="m 14.424483,19.553411 c -0.261128,1.086033 -0.603338,2.401044 -3.516915,2.922268 l 6.808815,0.184815 -0.04086,-2.91472 z"
         id="path48" />
      <path
         style="color:#000000;fill:#0d0d0d;stroke-linecap:round;stroke-linejoin:round;stroke-miterlimit:6.6;-inkscape-stroke:none"
         d="m 9.5859375,19.048828 c -1.0516357,0 -1.9433594,0.854197 -1.9433594,1.912109 v 0.646485 c 0,1.057912 0.8917221,1.912109 1.9433594,1.912109 h 7.2851565 c 1.051637,0 1.945312,-0.854198 1.945312,-1.912109 v -0.646485 c 0,-1.057911 -0.893677,-1.912109 -1.945312,-1.912109 h -0.845703 c -0.437766,4.31e-4 -0.792538,0.355203 -0.792969,0.792969 -6.48e-4,0.438529 0.35444,0.794491 0.792969,0.794922 h 0.845703 c 0.223205,0 0.357422,0.142571 0.357422,0.324218 v 0.646485 c 0,0.181647 -0.134219,0.324219 -0.357422,0.324219 H 9.5859375 c -0.2232032,0 -0.3554688,-0.142573 -0.3554687,-0.324219 v -0.646485 c 0,-0.181646 0.1322638,-0.324218 0.3554687,-0.324218 h 4.3611985 c 0.438529,-4.31e-4 0.793616,-0.356393 0.792969,-0.794922 -4.31e-4,-0.437766 -0.355203,-0.792538 -0.792969,-0.792969 z"
         id="path52" />
      <path
         style="fill:#4d4d4d;fill-opacity:1;stroke:#0d0d0d;stroke-width:1.5875;stroke-linecap:round;stroke-linejoin:round;stroke-miterlimit:6.6;stroke-dasharray:none;stroke-opacity:1"
         d="m 17.28225,8.2027438 c 0,0 0.735245,4.5657362 -2.625871,7.0322842"
         id="path39" />
    </g>
    <g
       id="g6">
      <path
         style="color:#000000;fill:#4d4d4d;stroke-linecap:round;stroke-linejoin:round;stroke-miterlimit:6.6;-inkscape-stroke:none"
         d="m 12.642313,13.357853 c 0,0 -4.5116296,2.345322 -6.6520329,1.16069 L 4.7859156,10.27464 11.300424,7.5663746 9.8136897,3.6048875 c 0,0 6.9543103,2.368592 8.1953633,3.6624854 1.256998,1.3105155 2.062505,2.8336091 2.177745,5.1635741 0.09688,1.958761 -1.200834,4.002677 -1.177481,6.9676 0.01051,1.335117 1.004665,2.798255 1.004665,2.798255 -2.758504,1.038706 -9.642997,0.930522 -12.181936,0.0078 0,0 3.193871,-5.123861 2.537155,-7.769721"
         id="path1" />
      <path
         style="fill:#323232;fill-opacity:1;stroke:none;stroke-width:1.56199;stroke-linecap:round;stroke-linejoin:round;stroke-miterlimit:6.6"
         d="m 10.199949,14.397119 0.210116,4.012744 c 1.681476,-4.135678 2.585511,-4.403607 2.585511,-4.403607 z"
         id="path4" />
      <path
         style="fill:#323232;fill-opacity:1;stroke:none;stroke-width:1.56199;stroke-linecap:round;stroke-linejoin:round;stroke-miterlimit:6.6"
         d="M 18.715128,9.2282036 C 19.630417,11.29634 18.247782,21.521369 11.29886,22.609997 l 8.403277,-0.407541 -0.391047,-6.597442 0.912441,-5.6886106 z"
         id="path3" />
      <path
         style="color:#000000;fill:#0e0e0e;stroke-linecap:round;stroke-linejoin:round;stroke-miterlimit:6.6;-inkscape-stroke:none"
         d="M 10.070313,2.8535156 A 0.79382936,0.79382936 0 0 0 9.0703125,3.8828125 L 10.287109,7.1269531 4.4804687,9.5410156 A 0.79382936,0.79382936 0 0 0 4.0214844,10.492188 l 1.2050781,4.242187 a 0.79382936,0.79382936 0 0 0 0.3789062,0.478516 c 1.2208225,0.675679 2.6431795,0.447791 3.9433594,0.103515 -0.014939,1.004202 -0.3595349,2.395501 -0.9277343,3.673828 -0.6908662,1.554301 -1.4628907,2.794922 -1.4628907,2.794922 a 0.79382936,0.79382936 0 0 0 0.4023438,1.166016 c 1.4765721,0.536628 3.8376221,0.766462 6.2753911,0.779297 2.437768,0.01283 4.865476,-0.191721 6.457031,-0.791016 A 0.79382936,0.79382936 0 0 0 20.669922,21.75 c 0,0 -0.859743,-1.411733 -0.867188,-2.357422 -0.02151,-2.730458 1.293237,-4.664731 1.177735,-7 C 20.857057,9.8973897 19.934437,8.1287357 18.582031,6.71875 18.099165,6.2153246 17.409136,5.8541776 16.552734,5.4355469 15.696333,5.0169161 14.698291,4.5942924 13.740234,4.2128906 11.824122,3.4500871 10.070313,2.8535156 10.070313,2.8535156 Z m 1.095703,2.0976563 c 0.677882,0.2428401 0.952011,0.3245672 1.986328,0.7363281 0.935651,0.3724822 1.906548,0.7863943 2.703125,1.1757812 0.796576,0.389387 1.442418,0.8096044 1.580078,0.953125 1.161587,1.2110427 1.851916,2.4895598 1.958984,4.6542968 0.07826,1.582249 -1.204887,3.734212 -1.179687,6.933594 0.0065,0.822959 0.28036,1.576795 0.550781,2.162109 -1.282976,0.316023 -2.974199,0.586416 -4.919922,0.576172 -1.942288,-0.01023 -3.576492,-0.28011 -4.7890624,-0.570312 0.3033447,-0.524513 0.5348539,-0.855868 1.0156254,-1.9375 0.661681,-1.488641 1.214102,-3.214778 1.046875,-4.802735 0.877299,-0.346973 1.888672,-0.769531 1.888672,-0.769531 a 0.79374999,0.79374999 0 0 0 0.33789,-1.070312 0.79374999,0.79374999 0 0 0 -1.070312,-0.337891 c 0,0 -1.075508,0.556456 -2.3945316,0.970703 -1.2089287,0.379671 -2.5172947,0.493227 -3.2539063,0.232422 L 5.7421875,10.736328 11.605469,8.2988281 a 0.79382936,0.79382936 0 0 0 0.4375,-1.0117187 z"
         id="path6" />
      <path
         style="fill:#0c0c0c;fill-opacity:1;stroke:none;stroke-width:1.56199;stroke-linecap:round;stroke-linejoin:round;stroke-miterlimit:6.6"
         d="M 10.63551,10.260665 C 10.739173,9.3700093 12.070227,8.3855352 12.794584,8.9196676 13.728639,9.60843 11.667724,9.8283553 10.63551,10.260665 Z"
         id="path2" />
    </g>
  </g>
</svg>
