<?xml version="1.0" encoding="UTF-8" standalone="no"?>
<!-- Created with Inkscape (http://www.inkscape.org/) -->

<svg
   width="100"
   height="100"
   viewBox="0 0 26.458333 26.458333"
   version="1.1"
   id="svg1"
   xmlns="http://www.w3.org/2000/svg"
   xmlns:svg="http://www.w3.org/2000/svg">
  <defs
     id="defs1" />
  <rect
     style="display:none;fill:#dc0000;fill-opacity:0.0973452;stroke:none;stroke-width:1.5875;stroke-linecap:round;stroke-linejoin:round;stroke-miterlimit:6.6;stroke-dasharray:none;stroke-opacity:1"
     id="rect36"
     width="21.166668"
     height="21.166668"
     x="2.7187326"
     y="2.6458333" />
  <g
     id="layer1">
    <g
       id="g25"
       style="display:none;opacity:1"
       transform="matrix(0.11705928,0,0,0.11705928,0.93795309,1.2509941)">
      <path
         style="color:#000000;fill:#e6e6e6;fill-opacity:1;stroke-linecap:round;stroke-linejoin:round;stroke-miterlimit:6.6;-inkscape-stroke:none"
         d="m 93.338178,77.251692 c 0,0 -1.4741,23.856188 -18.69319,53.153368 -14.417833,24.53101 -16.050817,44.45732 -16.050817,44.45732 0,0 15.683631,6.8847 46.322209,7.68435 l -5.9e-4,0.006 c 0.0288,-7.4e-4 0.0551,-0.002 0.0839,-0.003 0.0288,7.4e-4 0.0551,0.002 0.0839,0.003 l -5.9e-4,-0.006 c 30.63898,-0.79958 46.3228,-7.68435 46.3228,-7.68435 0,0 -1.63299,-19.92631 -16.05081,-44.45732 -17.2191,-29.29718 -18.6932,-53.153368 -18.6932,-53.153368 l -11.45725,1.499439 z m 11.745442,105.301278 0.006,0.0521 0.009,-0.0516 c -0.006,-1.4e-4 -0.0103,-4.3e-4 -0.0152,-5.6e-4 z m -0.16783,0 c -0.004,1.2e-4 -0.009,4.4e-4 -0.0147,5.6e-4 l 0.009,0.0516 z"
         id="path29" />
      <path
         style="fill:#cbcbcb;fill-opacity:1;stroke:none;stroke-width:4.10343;stroke-linecap:round;stroke-linejoin:round;stroke-miterlimit:6.6;stroke-dasharray:none;stroke-opacity:1"
         d="m 99.08122,92.238505 c 17.04538,1.418734 28.56855,62.846875 20.35134,89.107215 l 33.12159,-6.25988 -6.70844,-25.91031 -12.72048,-20.46691 -12.32446,-42.085876"
         id="path19" />
      <path
         style="color:#000000;fill:#0d0d0d;stroke-linecap:round;stroke-linejoin:round;stroke-miterlimit:6.6;-inkscape-stroke:none"
         d="m 94.1875,70.525391 a 6.7814307,6.7814307 0 0 0 -7.617188,6.308593 c 0,0 -1.281522,22.07815 -17.771484,50.134766 -15.117267,25.72105 -16.96289,47.33984 -16.962891,47.33984 a 6.7814307,6.7814307 0 0 0 4.033204,6.76172 c 0,0 17.278129,7.42935 48.871089,8.25391 l -0.19531,-0.2207 a 6.7814307,6.7814307 0 0 0 0.31836,0.13281 l -0.48437,-0.58985 a 6.7814307,6.7814307 0 0 0 0.10547,-0.004 l -0.0273,-0.0293 a 6.7814307,6.7814307 0 0 0 0.49219,0.0156 6.7814307,6.7814307 0 0 0 0.0684,-0.004 v 0.006 a 6.7814307,6.7814307 0 0 0 0.58984,0.0156 l -0.52734,0.64063 -0.14453,-0.1543 -0.0195,0.12696 a 6.7814307,6.7814307 0 0 0 0.11132,0.0449 6.7814307,6.7814307 0 0 0 0.043,-0.006 l -0.0156,0.0176 a 6.7814307,6.7814307 0 0 0 0.0234,0.01 h -0.0312 l -0.004,0.006 c 0.10378,-0.002 0.0412,-0.002 0.0449,-0.002 a 6.7814307,6.7814307 0 0 0 0.002,0.002 c 0.0244,-6.3e-4 0.0107,-0.001 0.0293,-0.002 0.0731,-0.002 0.13559,-0.005 0.11524,-0.004 h -0.11915 l -0.0273,-0.0293 a 6.7814307,6.7814307 0 0 0 0.22266,-0.0312 l -0.0508,0.0586 c 31.59337,-0.82449 48.87109,-8.25391 48.87109,-8.25391 a 6.7814307,6.7814307 0 0 0 4.0332,-6.76172 c 0,0 -1.84564,-21.61879 -16.96289,-47.33984 C 124.7112,98.912135 123.42969,76.833984 123.42969,76.833984 a 6.7814307,6.7814307 0 0 0 -7.64844,-6.30664 l -10.5918,1.386718 z m 4.824219,14.277343 5.341801,0.675782 a 6.7814307,6.7814307 0 0 0 1.73046,-0.0039 l 4.91016,-0.642578 c 1.65234,9.528695 6.04388,27.789902 18.51563,49.009772 9.54233,16.23568 12.96498,29.56552 14.26757,36.4414 -6.2175,1.92651 -18.62465,4.94542 -38.77734,5.48047 -20.152423,-0.5351 -32.559916,-3.55397 -38.777344,-5.48047 1.302597,-6.87588 4.725231,-20.20572 14.267578,-36.4414 12.482539,-21.23824 16.872842,-39.518288 18.521485,-49.039069 z m 5.730471,90.970706 0.004,0.006 a 6.7814307,6.7814307 0 0 0 -0.002,0 6.7814307,6.7814307 0 0 0 -0.0312,-0.004 c -0.12786,0.004 -0.0239,-4.5e-4 0.0293,-0.002 z m -6.281253,5.66797 0.359375,0.01 a 6.7814307,6.7814307 0 0 0 -0.08594,0.32227 z m 0.251954,0.41015 a 6.7814307,6.7814307 0 0 0 -0.111329,0.42578 l -0.378906,-0.41015 z m 6.197269,7.44336 -0.004,0.0274 a 6.7814307,6.7814307 0 0 0 0.0234,-0.004 z m -0.084,0.0332 c -0.0628,-0.002 -0.0617,-9.3e-4 0.0215,0.002 a 6.7814307,6.7814307 0 0 0 0.0156,-0.002 z m 0.0781,0 v 0.004 c -0.15723,-0.004 -0.11168,-0.003 0.0371,0 l -0.004,-0.004 z"
         id="path30" />
      <path
         style="color:#000000;fill:#e5e5e5;fill-opacity:1;stroke-linecap:round;stroke-linejoin:round;stroke-miterlimit:6.6;-inkscape-stroke:none"
         d="M 102.86411,91.758025 A 34.911278,34.911278 0 0 1 70.143293,58.817538 34.911278,34.911278 0 0 1 99.079197,22.507196 34.911278,34.911278 0 0 1 138.49193,47.050315 34.911278,34.911278 0 0 1 118.67086,89.036659"
         id="path34" />
      <path
         style="fill:#cbcbcb;fill-opacity:1;stroke:none;stroke-width:3.92453;stroke-linecap:round;stroke-linejoin:round;stroke-miterlimit:6.6;stroke-dasharray:none;stroke-opacity:1"
         d="m 92.530812,88.681434 c 0,0 40.591418,-6.19247 36.019928,-50.504951 13.73137,9.735201 2.64588,33.926271 2.64588,33.926271 l -7.64681,11.13012 -9.40621,7.9293 c 0,0 -13.96371,6.75868 -21.612788,-2.48074 z"
         id="path16" />
      <path
         style="color:#000000;fill:#0d0d0d;stroke-linecap:round;stroke-linejoin:round;stroke-miterlimit:6.6;-inkscape-stroke:none"
         d="m 146.54418,60.349667 c 0.42242,-5.004211 -0.0571,-10.153264 -1.54763,-15.214773 -5.96208,-20.246038 -26.26884,-32.890628 -47.068486,-29.309663 -20.799641,3.580966 -35.70698,22.28846 -34.555167,43.362656 1.151812,21.074196 18.00991,38.045796 39.075923,39.338589 3.73755,0.228916 6.95313,-2.615129 7.18254,-6.352652 0.23004,-3.738244 -2.61424,-6.955029 -6.35252,-7.184488 C 88.972981,84.111402 77.69549,72.757919 76.913297,58.446508 76.131106,44.135096 86.103899,31.621841 100.22886,29.19002 c 14.12497,-2.43182 27.70969,6.02656 31.75851,19.775572 4.04882,13.749012 -2.78253,28.21981 -15.97114,33.831317 -3.44552,1.466305 -4.39365,5.31685 -3.63611,8.883302 0.77937,3.669218 5.49903,5.062201 8.94525,3.596676 14.56562,-6.197397 23.95156,-19.914589 25.21881,-34.92722 z"
         id="path35" />
    </g>
    <g
       id="g50"
       style="display:none;opacity:0.5">
      <path
         style="color:#000000;fill:#4d4d4d;fill-opacity:1;stroke-linecap:round;stroke-linejoin:round;stroke-miterlimit:6.6;-inkscape-stroke:none"
         d="M 9.9419395,19.913553 C 7.3649678,18.429599 6.1085869,14.66415 6.8787364,11.797372 7.6488857,8.9305932 11.382818,6.0612979 13.22916,3.7331562 c 1.88097,2.3002853 5.580274,5.197437 6.350423,8.0642158 0.770149,2.866778 -0.486231,6.668113 -3.063202,8.152068"
         id="path46" />
      <path
         style="fill:#343434;fill-opacity:1;stroke:none;stroke-width:1.5875;stroke-linecap:round;stroke-linejoin:round;stroke-miterlimit:6.6;stroke-dasharray:none;stroke-opacity:1"
         d="m 12.140243,19.870454 c 4.11009,-0.667919 7.246619,-6.231431 6.784052,-9.439709 l 0.72588,5.758832 -2.768478,3.641151 z"
         id="path45" />
      <path
         style="color:#000000;fill:#0d0d0d;stroke-linecap:round;stroke-linejoin:round;stroke-miterlimit:6.6;-inkscape-stroke:none"
         d="M 13.222656,2.9394531 A 0.79382936,0.79382936 0 0 0 12.607422,3.2402344 C 11.747476,4.3245814 10.354839,5.6284649 9.0664063,7.0253906 7.7779733,8.4223163 6.5625783,9.9120778 6.1113281,11.591797 5.2398775,14.835655 6.5614415,18.88352 9.5449219,20.601562 A 0.79374999,0.79374999 0 0 0 10.628906,20.310547 0.79374999,0.79374999 0 0 0 10.337891,19.226562 C 8.1674327,17.9767 6.9756844,14.493599 7.6445312,12.003906 7.9634296,10.816849 9.0017215,9.4380118 10.234375,8.1015625 c 1.02122,-1.1072121 2.07593,-2.1662178 2.996094,-3.2109375 0.927302,1.0335619 1.986993,2.0879279 3.005859,3.1992188 1.22732,1.3386531 2.256333,2.7235052 2.576172,3.9140622 0.668416,2.48809 -0.525744,6.010711 -2.691406,7.257813 a 0.79374999,0.79374999 0 0 0 -0.292969,1.083984 0.79374999,0.79374999 0 0 0 1.083984,0.291016 c 2.988275,-1.720806 4.305475,-5.799462 3.433594,-9.044922 C 19.895394,9.9155786 18.69136,8.4173109 17.40625,7.015625 16.12114,5.6139391 14.726188,4.3096245 13.84375,3.2304688 A 0.79382936,0.79382936 0 0 0 13.222656,2.9394531 Z"
         id="path47" />
      <path
         style="color:#000000;fill:#4d4d4d;fill-opacity:1;stroke-linecap:round;stroke-linejoin:round;stroke-miterlimit:6.6;-inkscape-stroke:none"
         d="m 16.025769,19.842424 h 0.845932 c 0.637421,0 1.150578,0.498954 1.150578,1.118734 v 0.645824 c 0,0.61978 -0.513157,1.118736 -1.150578,1.118736 H 9.5866187 c -0.6374209,0 -1.1505791,-0.498956 -1.1505791,-1.118736 v -0.645824 c 0,-0.61978 0.5131582,-1.118734 1.1505791,-1.118734 h 3.8311023"
         id="path51" />
      <path
         style="fill:#323232;fill-opacity:1;stroke:none;stroke-width:1.5875;stroke-linecap:round;stroke-linejoin:round;stroke-miterlimit:6.6;stroke-dasharray:none;stroke-opacity:1"
         d="m 14.424483,19.553411 c -0.261128,1.086033 -0.603338,2.401044 -3.516915,2.922268 l 6.808815,0.184815 -0.04086,-2.91472 z"
         id="path48" />
      <path
         style="color:#000000;fill:#0d0d0d;stroke-linecap:round;stroke-linejoin:round;stroke-miterlimit:6.6;-inkscape-stroke:none"
         d="m 9.5859375,19.048828 c -1.0516357,0 -1.9433594,0.854197 -1.9433594,1.912109 v 0.646485 c 0,1.057912 0.8917221,1.912109 1.9433594,1.912109 h 7.2851565 c 1.051637,0 1.945312,-0.854198 1.945312,-1.912109 v -0.646485 c 0,-1.057911 -0.893677,-1.912109 -1.945312,-1.912109 h -0.845703 c -0.437766,4.31e-4 -0.792538,0.355203 -0.792969,0.792969 -6.48e-4,0.438529 0.35444,0.794491 0.792969,0.794922 h 0.845703 c 0.223205,0 0.357422,0.142571 0.357422,0.324218 v 0.646485 c 0,0.181647 -0.134219,0.324219 -0.357422,0.324219 H 9.5859375 c -0.2232032,0 -0.3554688,-0.142573 -0.3554687,-0.324219 v -0.646485 c 0,-0.181646 0.1322638,-0.324218 0.3554687,-0.324218 h 4.3611985 c 0.438529,-4.31e-4 0.793616,-0.356393 0.792969,-0.794922 -4.31e-4,-0.437766 -0.355203,-0.792538 -0.792969,-0.792969 z"
         id="path52" />
      <path
         style="fill:#4d4d4d;fill-opacity:1;stroke:#0d0d0d;stroke-width:1.5875;stroke-linecap:round;stroke-linejoin:round;stroke-miterlimit:6.6;stroke-dasharray:none;stroke-opacity:1"
         d="m 17.28225,8.2027438 c 0,0 0.735245,4.5657362 -2.625871,7.0322842"
         id="path39" />
    </g>
    <g
       id="g6"
       style="display:none">
      <path
         style="color:#000000;fill:#4d4d4d;stroke-linecap:round;stroke-linejoin:round;stroke-miterlimit:6.6;-inkscape-stroke:none"
         d="m 12.642313,13.357853 c 0,0 -4.5116296,2.345322 -6.6520329,1.16069 L 4.7859156,10.27464 11.300424,7.5663746 9.8136897,3.6048875 c 0,0 6.9543103,2.368592 8.1953633,3.6624854 1.256998,1.3105155 2.062505,2.8336091 2.177745,5.1635741 0.09688,1.958761 -1.200834,4.002677 -1.177481,6.9676 0.01051,1.335117 1.004665,2.798255 1.004665,2.798255 -2.758504,1.038706 -9.642997,0.930522 -12.181936,0.0078 0,0 3.193871,-5.123861 2.537155,-7.769721"
         id="path1" />
      <path
         style="fill:#323232;fill-opacity:1;stroke:none;stroke-width:1.56199;stroke-linecap:round;stroke-linejoin:round;stroke-miterlimit:6.6"
         d="m 10.199949,14.397119 0.210116,4.012744 c 1.681476,-4.135678 2.585511,-4.403607 2.585511,-4.403607 z"
         id="path4" />
      <path
         style="fill:#323232;fill-opacity:1;stroke:none;stroke-width:1.56199;stroke-linecap:round;stroke-linejoin:round;stroke-miterlimit:6.6"
         d="M 18.715128,9.2282036 C 19.630417,11.29634 18.247782,21.521369 11.29886,22.609997 l 8.403277,-0.407541 -0.391047,-6.597442 0.912441,-5.6886106 z"
         id="path3" />
      <path
         style="color:#000000;fill:#0e0e0e;stroke-linecap:round;stroke-linejoin:round;stroke-miterlimit:6.6;-inkscape-stroke:none"
         d="M 10.070313,2.8535156 A 0.79382936,0.79382936 0 0 0 9.0703125,3.8828125 L 10.287109,7.1269531 4.4804687,9.5410156 A 0.79382936,0.79382936 0 0 0 4.0214844,10.492188 l 1.2050781,4.242187 a 0.79382936,0.79382936 0 0 0 0.3789062,0.478516 c 1.2208225,0.675679 2.6431795,0.447791 3.9433594,0.103515 -0.014939,1.004202 -0.3595349,2.395501 -0.9277343,3.673828 -0.6908662,1.554301 -1.4628907,2.794922 -1.4628907,2.794922 a 0.79382936,0.79382936 0 0 0 0.4023438,1.166016 c 1.4765721,0.536628 3.8376221,0.766462 6.2753911,0.779297 2.437768,0.01283 4.865476,-0.191721 6.457031,-0.791016 A 0.79382936,0.79382936 0 0 0 20.669922,21.75 c 0,0 -0.859743,-1.411733 -0.867188,-2.357422 -0.02151,-2.730458 1.293237,-4.664731 1.177735,-7 C 20.857057,9.8973897 19.934437,8.1287357 18.582031,6.71875 18.099165,6.2153246 17.409136,5.8541776 16.552734,5.4355469 15.696333,5.0169161 14.698291,4.5942924 13.740234,4.2128906 11.824122,3.4500871 10.070313,2.8535156 10.070313,2.8535156 Z m 1.095703,2.0976563 c 0.677882,0.2428401 0.952011,0.3245672 1.986328,0.7363281 0.935651,0.3724822 1.906548,0.7863943 2.703125,1.1757812 0.796576,0.389387 1.442418,0.8096044 1.580078,0.953125 1.161587,1.2110427 1.851916,2.4895598 1.958984,4.6542968 0.07826,1.582249 -1.204887,3.734212 -1.179687,6.933594 0.0065,0.822959 0.28036,1.576795 0.550781,2.162109 -1.282976,0.316023 -2.974199,0.586416 -4.919922,0.576172 -1.942288,-0.01023 -3.576492,-0.28011 -4.7890624,-0.570312 0.3033447,-0.524513 0.5348539,-0.855868 1.0156254,-1.9375 0.661681,-1.488641 1.214102,-3.214778 1.046875,-4.802735 0.877299,-0.346973 1.888672,-0.769531 1.888672,-0.769531 a 0.79374999,0.79374999 0 0 0 0.33789,-1.070312 0.79374999,0.79374999 0 0 0 -1.070312,-0.337891 c 0,0 -1.075508,0.556456 -2.3945316,0.970703 -1.2089287,0.379671 -2.5172947,0.493227 -3.2539063,0.232422 L 5.7421875,10.736328 11.605469,8.2988281 a 0.79382936,0.79382936 0 0 0 0.4375,-1.0117187 z"
         id="path6" />
      <path
         style="fill:#0c0c0c;fill-opacity:1;stroke:none;stroke-width:1.56199;stroke-linecap:round;stroke-linejoin:round;stroke-miterlimit:6.6"
         d="M 10.63551,10.260665 C 10.739173,9.3700093 12.070227,8.3855352 12.794584,8.9196676 13.728639,9.60843 11.667724,9.8283553 10.63551,10.260665 Z"
         id="path2" />
    </g>
    <g
       id="g26"
       style="display:none">
      <path
         style="color:#000000;fill:#4c4c4c;fill-opacity:1;stroke-width:1;stroke-linecap:round;stroke-linejoin:round;stroke-miterlimit:6.6;-inkscape-stroke:none"
         d="M 8.4798353,8.5793229 7.922964,19.387237 18.535319,19.352168 17.952654,8.588554 Z"
         id="path22" />
      <path
         style="fill:#333333;fill-opacity:1;stroke:none;stroke-width:1.5875;stroke-linecap:round;stroke-linejoin:round;stroke-miterlimit:6.6;stroke-dasharray:none;stroke-opacity:1"
         d="m 14.128786,18.825766 c 2.449604,-2.182465 2.745632,-5.58066 3.121273,-9.1493416 l 1.259532,-0.1497899 0.294103,9.2601595 z"
         id="path17" />
      <path
         style="color:#000000;fill:#0e0e0e;stroke-width:1;stroke-linecap:round;stroke-linejoin:round;stroke-miterlimit:6.6;-inkscape-stroke:none"
         d="M 8.4804645,7.7851562 A 0.85577385,0.79382936 0 0 0 7.6256183,8.5410156 L 7.0676523,19.349609 a 0.85577385,0.79382936 0 0 0 0.8590572,0.832032 L 18.538592,20.146481 A 0.85577385,0.79382936 0 0 0 19.389226,19.3125 L 18.8081,8.5488281 A 0.85577385,0.79382936 0 0 0 17.953254,7.7949219 Z m 0.8148408,1.5878907 7.8431077,0.00781 0.499011,9.1816401 -8.8179689,0.02734 z"
         id="path23" />
      <path
         style="color:#000000;fill:#4d4d4d;fill-opacity:1;stroke-linecap:round;stroke-linejoin:round;stroke-miterlimit:6.6;-inkscape-stroke:none"
         d="m 17.21715,18.623917 h 1.071203 c 0.741145,0 1.337808,0.552735 1.337808,1.239318 v 1.368886 c 0,0.686582 -0.596663,1.239318 -1.337808,1.239318 H 8.1699306 c -0.7411453,0 -1.3378075,-0.552736 -1.3378075,-1.239318 v -1.368886 c 0,-0.686583 0.5966622,-1.239318 1.3378075,-1.239318 h 5.8989314"
         id="path27" />
      <path
         style="fill:#343434;fill-opacity:1;stroke:none;stroke-width:1.5875;stroke-linecap:round;stroke-linejoin:round;stroke-miterlimit:6.6;stroke-dasharray:none;stroke-opacity:1"
         d="m 9.8195902,22.105624 c 2.6860438,-0.81559 3.5221428,-1.945581 4.8550198,-3.800045 1.056931,3.06e-4 4.092791,-0.05642 4.405283,0.518667 l 0.09671,3.094895 z"
         id="path18" />
      <path
         style="color:#000000;fill:#0e0e0e;stroke-linecap:round;stroke-linejoin:round;stroke-miterlimit:6.6;-inkscape-stroke:none"
         d="m 8.1699219,17.830078 c -1.1357887,0 -2.1308594,0.886759 -2.1308594,2.033203 v 1.369141 c 0,1.146444 0.99507,2.033203 2.1308594,2.033203 H 18.289062 c 1.13579,0 2.13086,-0.886759 2.13086,-2.033203 v -1.369141 c 0,-1.146445 -0.995071,-2.033203 -2.13086,-2.033203 h -1.072265 a 0.79374999,0.79374999 0 0 0 -0.792969,0.792969 0.79374999,0.79374999 0 0 0 0.792969,0.794922 h 1.072265 c 0.3465,0 0.542969,0.218593 0.542969,0.445312 v 1.369141 c 0,0.226718 -0.196469,0.445312 -0.542969,0.445312 H 8.1699219 C 7.8234222,21.677734 7.625,21.459141 7.625,21.232422 v -1.369141 c 0,-0.22672 0.1984214,-0.445312 0.5449219,-0.445312 h 5.8984371 a 0.79374999,0.79374999 0 0 0 0.794922,-0.794922 0.79374999,0.79374999 0 0 0 -0.794922,-0.792969 z"
         id="path28" />
      <path
         style="color:#000000;fill:#4d4d4d;fill-opacity:1;stroke-width:1;stroke-linecap:round;stroke-linejoin:round;stroke-miterlimit:6.6;-inkscape-stroke:none"
         d="M 7.4870734,3.888002 H 18.97121 c 0.741145,0 1.405145,0.5555755 1.337808,1.2393181 l -0.297291,3.0187337 c -0.06734,0.6837426 -0.596663,1.239318 -1.337809,1.239318 H 7.784364 c -0.7411454,0 -1.2704713,-0.5555754 -1.3378076,-1.239318 L 6.1492657,5.1273201 C 6.0819295,4.4435775 6.7459279,3.888002 7.4870734,3.888002 Z"
         id="path20" />
      <path
         style="fill:#323232;fill-opacity:1;stroke:none;stroke-width:1.5875;stroke-linecap:round;stroke-linejoin:round;stroke-miterlimit:6.6;stroke-dasharray:none;stroke-opacity:1"
         d="m 14.229253,8.6914608 c 2.535756,-0.1999621 4.623016,-1.4053692 5.335059,-3.7540354 l 0.242891,3.766269 z"
         id="path15" />
      <path
         style="color:#000000;fill:#0e0e0e;stroke-width:1;stroke-linecap:round;stroke-linejoin:round;stroke-miterlimit:6.6;-inkscape-stroke:none"
         d="m 7.4866531,3.09375 c -1.2021387,0 -2.3072737,0.912151 -2.1897535,2.1054687 L 5.5937797,8.21875 c 0.1004759,1.0202473 0.9876148,1.960938 2.1897536,1.960938 H 18.673346 c 1.202139,0 2.089266,-0.940702 2.189754,-1.960938 L 21.162085,5.1992187 C 21.279607,4.0058995 20.172364,3.09375 18.970225,3.09375 Z m 0,1.5878906 H 18.970225 c 0.280151,0 0.503531,0.1988823 0.486378,0.3730469 l -0.296879,3.0195313 c -0.03421,0.3472478 -0.206227,0.5175781 -0.486378,0.5175781 H 7.7835333 c -0.2801507,0 -0.4500759,-0.1703417 -0.4842725,-0.5175781 L 7.0023808,5.0546875 C 6.9852285,4.8805214 7.2065027,4.6816406 7.4866531,4.6816406 Z"
         id="path21" />
      <path
         style="fill:#cccccc;fill-opacity:1;stroke:#0e0e0e;stroke-width:1.5875;stroke-linecap:round;stroke-linejoin:round;stroke-miterlimit:6.6;stroke-dasharray:none;stroke-opacity:1"
         d="M 10.100682,4.0426856 V 6.1030824"
         id="path14" />
      <path
         style="fill:#cccccc;fill-opacity:1;stroke:#0e0e0e;stroke-width:1.5875;stroke-linecap:round;stroke-linejoin:round;stroke-miterlimit:6.6;stroke-dasharray:none;stroke-opacity:1"
         d="M 13.971189,4.0426856 V 6.1030824"
         id="path14-1" />
      <path
         style="fill:#cccccc;fill-opacity:1;stroke:#0e0e0e;stroke-width:1.5875;stroke-linecap:round;stroke-linejoin:round;stroke-miterlimit:6.6;stroke-dasharray:none;stroke-opacity:1"
         d="M 17.841698,4.0426856 V 6.1030824"
         id="path14-1-0" />
    </g>
    <g
       id="g41"
       style="display:inline"
       transform="translate(-0.15135737)">
      <path
         style="color:#000000;fill:#4d4d4d;fill-opacity:1;stroke-linecap:round;stroke-linejoin:round;stroke-miterlimit:6.6;-inkscape-stroke:none"
         d="M 13.582294,5.3094055 C 12.779993,7.8524798 12.029748,13.949076 12.029748,13.949076 L 8.9935982,5.9625254 c 0.2576114,4.5219406 0.4421516,8.7196116 0.4421516,8.7196116 l -4.259727,-6.94127 c 1.4737335,2.650133 3.0388287,14.711992 3.0388287,14.711992 3.5031375,0.231747 7.0062685,0.168827 10.5094015,-0.0076 0,0 1.602216,-12.041553 3.038829,-14.7119925 l -4.259727,6.9412685 c 0,0 -0.04445,-4.151872 0.442153,-8.7196102 l -3.036151,7.9865502 c 0,0 -0.509731,-6.0970659 -1.312031,-8.6401448 z"
         id="path37" />
      <path
         style="fill:#343434;fill-opacity:1;stroke:none;stroke-width:1.5875;stroke-linecap:round;stroke-linejoin:round;stroke-miterlimit:8.1;stroke-dasharray:none;stroke-opacity:1"
         d="m 10.611711,21.92847 c 0,0 6.308134,-3.137671 9.290509,-10.51907 l -1.251968,10.410476 z"
         id="path33" />
      <path
         style="color:#000000;fill:#0e0e0e;stroke-linecap:round;stroke-linejoin:round;stroke-miterlimit:6.6;-inkscape-stroke:none"
         d="m 13.896484,4.5664062 a 0.79382936,0.79382936 0 0 0 -0.673828,0.035156 l -0.01563,0.00781 a 0.79382936,0.79382936 0 0 0 -0.380859,0.4609375 c -0.469926,1.4895354 -0.86529,3.7645007 -1.15625,5.6972653 L 9.7363281,5.6796875 A 0.79382936,0.79382936 0 0 0 8.2011719,6.0078125 C 8.3668648,8.9162761 8.4108917,10.010365 8.4863281,11.617188 L 5.8535156,7.3261719 A 0.79390627,0.79390627 0 0 0 4.4824219,8.1269531 C 4.7555628,8.6181272 5.1521174,9.8622316 5.5,11.339844 c 0.3478826,1.477612 0.6787547,3.221031 0.9648437,4.884765 0.5721781,3.327468 0.9628907,6.330078 0.9628907,6.330078 a 0.79382936,0.79382936 0 0 0 0.734375,0.689454 c 3.5473546,0.234672 7.0813526,0.171427 10.6015626,-0.0059 a 0.79382936,0.79382936 0 0 0 0.748047,-0.6875 c 0,0 0.397674,-2.998444 0.974609,-6.324219 0.288468,-1.662887 0.622301,-3.406991 0.96875,-4.886718 0.346449,-1.4797274 0.737408,-2.7278299 1.007813,-3.230469 A 0.79399396,0.79399396 0 0 0 21.085937,7.3183594 l -2.634765,4.2929686 c 0.02623,-1.581122 -0.02729,-2.6576996 0.283203,-5.5722655 a 0.79382936,0.79382936 0 0 0 -1.53125,-0.3652344 l -1.853516,4.8769529 c -0.0048,-0.03927 -0.0029,-0.0327 -0.0078,-0.07226 C 15.11196,8.61924 14.794914,6.4616168 14.353516,5.0625 A 0.79382936,0.79382936 0 0 0 13.896484,4.5664062 Z M 13.59375,9.7167969 c 0.04929,0.3543731 0.129884,0.6153891 0.171875,0.9550781 0.225603,1.825023 0.353516,3.335938 0.353516,3.335938 a 0.79382936,0.79382936 0 0 0 1.53125,0.214843 l 1.248046,-3.283203 c -0.02823,1.224343 -0.189453,3.744141 -0.189453,3.744141 a 0.79382936,0.79382936 0 0 0 1.470703,0.40625 l 1.351563,-2.203125 c -0.208528,1.025876 -0.427602,2.031778 -0.607422,3.068359 -0.520523,3.000584 -0.805883,5.14419 -0.880859,5.697266 -3.059657,0.14127 -6.107751,0.178515 -9.1464846,0.0078 C 8.8228679,21.104052 8.5474622,18.959033 8.03125,15.957031 7.8556881,14.936061 7.6383343,13.946846 7.4335937,12.935547 l 1.3261719,2.162109 a 0.79382936,0.79382936 0 0 0 1.4687504,-0.451172 c 0,0 -0.129747,-2.483207 -0.1875,-3.695312 l 1.246093,3.279297 a 0.79382936,0.79382936 0 0 0 1.53125,-0.183594 c 0,0 0.47786,-2.4512 0.775391,-4.3300781 z"
         id="path38" />
      <circle
         style="fill:#4d4d4d;fill-opacity:1;stroke:#0e0e0e;stroke-width:1.5875;stroke-linecap:round;stroke-linejoin:round;stroke-miterlimit:8.1;stroke-dasharray:none;stroke-opacity:1"
         id="path32"
         cx="13.469646"
         cy="4.7453523"
         r="1.1798897" />
      <circle
         style="fill:#4d4d4d;fill-opacity:1;stroke:#0e0e0e;stroke-width:1.5875;stroke-linecap:round;stroke-linejoin:round;stroke-miterlimit:8.1;stroke-dasharray:none;stroke-opacity:1"
         id="path32-4"
         cx="8.9275904"
         cy="5.6007671"
         r="1.1798897" />
      <circle
         style="fill:#4d4d4d;fill-opacity:1;stroke:#0e0e0e;stroke-width:1.5875;stroke-linecap:round;stroke-linejoin:round;stroke-miterlimit:8.1;stroke-dasharray:none;stroke-opacity:1"
         id="path32-4-1"
         cx="4.9221878"
         cy="7.3786893"
         r="1.1798897" />
      <circle
         style="fill:#4d4d4d;fill-opacity:1;stroke:#0e0e0e;stroke-width:1.5875;stroke-linecap:round;stroke-linejoin:round;stroke-miterlimit:8.1;stroke-dasharray:none;stroke-opacity:1"
         id="path32-4-7"
         cx="-18.167938"
         cy="5.6007671"
         r="1.1798897"
         transform="scale(-1,1)" />
      <circle
         style="fill:#4d4d4d;fill-opacity:1;stroke:#0e0e0e;stroke-width:1.5875;stroke-linecap:round;stroke-linejoin:round;stroke-miterlimit:8.1;stroke-dasharray:none;stroke-opacity:1"
         id="path32-4-1-7"
         cx="-21.984659"
         cy="7.3786893"
         r="1.1798897"
         transform="scale(-1,1)" />
      <path
         style="fill:#4c4c4c;fill-opacity:1;stroke:#0e0e0e;stroke-width:1.5875;stroke-linecap:round;stroke-linejoin:round;stroke-miterlimit:8.1;stroke-dasharray:none;stroke-opacity:1"
         d="m 7.903266,19.392273 c 0,0 4.317525,0.585427 6.878768,0.512249"
         id="path40" />
      <path
         style="fill:#4c4c4c;fill-opacity:1;stroke:#0e0e0e;stroke-width:1.5875;stroke-linecap:round;stroke-linejoin:round;stroke-miterlimit:8.1;stroke-dasharray:none;stroke-opacity:1"
         d="m 17.139177,19.84162 c 0,0 1.019342,-0.02371 1.825334,-0.237057"
         id="path41" />
    </g>
  </g>
</svg>
